{"title":"Stolichani v poveche - Season 4 - Episode 2","uid":7675962,"size":549399830,"categoryP":"video","categoryS":"tv_shows","magnet":"?xt=urn:btih:f79f95a2410e360d93a46c856c0084c784381394&amp;dn=Stolichani+v+poveche+-+Season+4+-+Episode+2&amp;tr=udp%3A%2F%2Ftracker.openbittorrent.com%3A80&amp;tr=udp%3A%2F%2Fopen.demonii.com%3A1337&amp;tr=udp%3A%2F%2Ftracker.coppersurfer.tk%3A6969&amp;tr=udp%3A%2F%2Fexodus.desync.com%3A6969","seeders":1,"leechers":0,"uploader":"Jell181155","files":1,"time":1348694510,"description":"HQ TVrip\n\nFormat                                   : AVI\nFormat/Info                              : Audio Video Interleave\nFile size                                : 524 MiB\nDuration                                 : 42mn 17s\nOverall bit rate                         : 1 732 Kbps\n\nVideo\nID                                       : 0\nFormat                                   : MPEG-4 Visual\nFormat profile                           : Advanced Simple@L5\nFormat settings, BVOP                    : 2\nFormat settings, QPel                    : No\nFormat settings, GMC                     : No warppoints\nFormat settings, Matrix                  : Default (H.263)\nMuxing mode                              : Packed bitstream\nCodec ID                                 : XVID\nCodec ID/Hint                            : XviD\nDuration                                 : 42mn 17s\nBit rate                                 : 1 595 Kbps\nWidth                                    : 768 pixels\nHeight                                   : 438 pixels\nDisplay aspect ratio                     : 16:9\nFrame rate                               : 25.000 fps\nColor space                              : YUV\nChroma subsampling                       : 4:2:0\nBit depth                                : 8 bits\nScan type                                : Progressive\nCompression mode                         : Lossy\nBits/(Pixel*Frame)                       : 0.190\nStream size                              : 482 MiB (92%)\nWriting library                          : XviD 1.1.2 (UTC 2006-11-01)\n\nAudio\nID                                       : 1\nFormat                                   : MPEG Audio\nFormat version                           : Version 1\nFormat profile                           : Layer 3\nMode                                     : Joint stereo\nMode extension                           : MS Stereo\nCodec ID                                 : 55\nCodec ID/Hint                            : MP3\nDuration                                 : 42mn 16s\nBit rate mode                            : Constant\nBit rate                                 : 128 Kbps\nChannel(s)                               : 2 channels\nSampling rate                            : 44.1 KHz\nCompression mode                         : Lossy\nDelay relative to video                  : 430ms\nStream size                              : 38.7 MiB (7%)\nAlignment                                : Split accross interleaves\nInterleave, duration                     : 40 ms (1.00 video frame)\nInterleave, preload duration             : 500 ms","torrent":{"xt":"urn:btih:f79f95a2410e360d93a46c856c0084c784381394","amp;dn":"Stolichani+v+poveche+-+Season+4+-+Episode+2","amp;tr":["udp%3A%2F%2Ftracker.openbittorrent.com%3A80","udp%3A%2F%2Fopen.demonii.com%3A1337","udp%3A%2F%2Ftracker.coppersurfer.tk%3A6969","udp%3A%2F%2Fexodus.desync.com%3A6969"],"infoHash":"f79f95a2410e360d93a46c856c0084c784381394","infoHashBuffer":{"type":"Buffer","data":[247,159,149,162,65,14,54,13,147,164,108,133,108,0,132,199,132,56,19,148]},"announce":[],"urlList":[]}}